<?xml version="1.0" standalone="no"?>
<!DOCTYPE svg PUBLIC "-//W3C//DTD SVG 20010904//EN"
 "http://www.w3.org/TR/2001/REC-SVG-20010904/DTD/svg10.dtd">
<svg version="1.0" xmlns="http://www.w3.org/2000/svg"
 width="560.000000pt" height="560.000000pt" viewBox="0 0 560.000000 560.000000"
 preserveAspectRatio="xMidYMid meet">
<metadata>
Created by potrace 1.11, written by Peter Selinger 2001-2013
</metadata>
<g transform="translate(0.000000,560.000000) scale(0.100000,-0.100000)"
fill="#000000" stroke="none">
<path d="M5260 4634 l0 -57 -51 7 c-45 6 -53 4 -66 -13 -20 -30 -28 -26 -39
17 -8 35 -12 37 -50 40 -37 3 -45 -1 -64 -27 -12 -17 -28 -31 -37 -31 -11 0
-13 -5 -8 -17 14 -34 17 -121 5 -157 -6 -19 -32 -58 -57 -86 -46 -51 -72 -66
-53 -30 6 12 10 35 8 53 l-3 32 -60 0 c-71 0 -185 -30 -219 -56 l-25 -19 30
-65 c40 -89 39 -95 -20 -95 -42 0 -54 -5 -94 -40 -52 -46 -59 -47 -94 -20 -14
11 -34 20 -44 20 -15 0 -18 -6 -13 -32 6 -33 27 -58 74 -89 23 -15 19 -16 -84
-22 -59 -4 -112 -9 -117 -13 -5 -3 -9 -43 -9 -89 l0 -83 40 -16 c35 -14 39
-19 30 -35 -9 -17 -14 -18 -46 -8 -41 12 -57 -1 -48 -39 9 -37 -10 -35 -75 8
-45 30 -65 38 -73 30 -8 -8 3 -27 41 -68 30 -34 51 -67 51 -81 0 -28 -10 -29
-43 -3 -32 25 -35 25 -64 -1 -20 -20 -23 -20 -29 -5 -8 21 13 46 38 46 27 0 8
33 -40 65 -43 29 -62 32 -62 8 0 -49 -117 -197 -149 -191 -9 2 -31 26 -48 53
l-33 50 0 146 c0 131 -2 148 -19 163 -23 21 -26 40 -46 239 -8 81 -19 165 -25
186 -13 51 -51 85 -84 77 -25 -6 -26 -4 -26 34 0 53 -23 53 -39 0 -7 -23 -18
-40 -26 -40 -20 0 -42 38 -50 88 -10 63 -34 57 -84 -22 -28 -46 -31 -57 -31
-134 0 -47 10 -140 22 -209 20 -114 21 -132 9 -241 -15 -145 0 -235 51 -289
14 -15 17 -23 8 -23 -20 0 -6 -116 20 -167 22 -42 20 -63 -4 -63 -8 0 -19 -20
-25 -45 -8 -32 -15 -43 -25 -39 -11 4 -18 -7 -26 -38 -6 -23 -16 -59 -22 -80
-9 -31 -7 -43 11 -82 24 -49 47 -177 57 -323 7 -90 -12 -373 -25 -373 -15 1
-30 19 -55 68 -17 33 -36 56 -52 62 -35 14 -34 15 -34 -30 0 -27 7 -47 20 -60
22 -22 13 -31 -24 -27 -21 2 -27 -18 -39 -110 l-5 -43 44 0 c43 0 44 -1 38
-26 -5 -20 -2 -26 15 -31 29 -8 27 -15 -19 -51 -40 -33 -60 -78 -60 -134 0
-31 3 -33 29 -16 10 6 25 8 34 5 13 -5 16 -35 20 -194 6 -216 19 -340 40 -361
16 -15 62 -8 52 9 -4 5 35 9 94 9 l101 0 0 40 c0 38 2 40 30 40 26 0 30 4 30
28 0 15 14 54 30 87 36 71 37 101 8 132 l-22 23 22 68 c11 37 24 84 28 105 4
27 14 42 30 49 34 16 31 52 -6 78 -16 12 -30 26 -30 31 0 6 12 1 28 -11 l27
-22 3 28 c2 15 -2 38 -9 50 -9 18 -9 29 1 54 17 42 8 121 -19 159 -37 52 -38
90 -1 170 21 45 39 71 49 71 18 0 146 -82 200 -127 30 -26 32 -32 22 -51 -10
-19 -9 -22 8 -22 11 0 32 11 48 24 36 30 67 40 90 28 10 -5 33 -12 51 -15 l32
-6 0 48 c0 35 4 51 16 55 25 10 34 -2 34 -44 0 -56 -33 -90 -93 -97 -26 -3
-47 -9 -47 -12 0 -17 63 -103 132 -181 114 -129 401 -365 528 -434 l50 -27 0
68 0 68 27 -27 c23 -23 25 -29 13 -43 -11 -13 -11 -25 0 -68 7 -29 17 -58 23
-64 6 -9 39 -13 98 -13 l89 0 0 -40 c0 -44 12 -50 42 -23 18 16 19 15 34 -5 9
-14 26 -22 43 -22 47 0 65 22 76 92 11 71 -4 61 136 88 91 18 99 31 99 160 0
98 -2 109 -19 115 -11 3 -32 19 -48 34 -21 21 -50 34 -113 50 -67 17 -91 28
-120 56 -20 19 -40 35 -44 35 -17 0 3 -82 29 -115 l26 -35 -34 0 c-63 0 -109
65 -122 174 -7 50 -10 57 -34 62 -37 9 -77 49 -116 119 -43 77 -73 104 -127
116 -29 7 -52 20 -70 42 l-26 32 -43 -15 c-53 -19 -63 -40 -19 -40 31 0 32 -1
26 -32 -8 -41 -22 -54 -64 -63 -32 -7 -33 -6 -26 22 4 15 8 30 10 32 2 2 -10
13 -26 23 l-31 18 3 108 c1 59 -1 113 -6 120 -4 7 -42 29 -83 49 -52 25 -78
43 -86 62 -6 14 -12 27 -13 29 -1 2 -30 10 -65 18 -77 18 -89 27 -89 69 0 47
44 105 132 174 91 72 114 101 163 204 53 112 90 146 209 193 78 30 105 46 132
78 30 35 34 47 33 86 -3 54 9 75 64 116 23 16 59 43 80 58 27 19 51 53 82 116
48 95 58 104 120 115 69 12 76 15 70 35 -4 13 11 30 62 68 74 55 103 94 103
140 0 30 14 42 50 42 10 0 26 7 35 16 15 16 14 19 -14 48 l-31 32 23 22 c13
12 37 25 55 28 26 5 34 13 42 43 5 20 10 48 10 64 l0 27 -130 0 -130 0 0 -56z
m-193 -76 c-3 -8 -6 -5 -6 6 -1 11 2 17 5 13 3 -3 4 -12 1 -19z m172 -57 c20
-20 39 -106 27 -119 -14 -13 -61 24 -69 55 -10 35 -2 83 13 83 6 0 19 -9 29
-19z m-139 -52 c0 -6 -4 -7 -10 -4 -5 3 -10 11 -10 16 0 6 5 7 10 4 6 -3 10
-11 10 -16z m-2 -127 c2 -7 -7 -12 -22 -12 -21 0 -26 5 -26 26 0 25 1 26 22
12 12 -8 24 -20 26 -26z m149 -4 c-3 -8 -6 -5 -6 6 -1 11 2 17 5 13 3 -3 4
-12 1 -19z m-154 -113 c1 -5 -13 -11 -30 -13 -31 -3 -42 6 -26 22 10 10 53 3
56 -9z m-561 -127 c-7 -7 -12 -8 -12 -2 0 6 3 14 7 17 3 4 9 5 12 2 2 -3 -1
-11 -7 -17z m388 -19 c0 -5 -7 -9 -15 -9 -9 0 -12 6 -9 15 6 15 24 11 24 -6z
m-485 -49 c3 -5 1 -10 -4 -10 -6 0 -11 5 -11 10 0 6 2 10 4 10 3 0 8 -4 11
-10z m-25 -145 c0 -8 -4 -15 -10 -15 -5 0 -10 7 -10 15 0 8 5 15 10 15 6 0 10
-7 10 -15z m-790 -161 c0 -8 -5 -12 -10 -9 -6 4 -8 11 -5 16 9 14 15 11 15 -7z
m660 -114 c0 -5 -4 -10 -10 -10 -5 0 -10 5 -10 10 0 6 5 10 10 10 6 0 10 -4
10 -10z m157 -56 c-3 -3 -12 -4 -19 -1 -8 3 -5 6 6 6 11 1 17 -2 13 -5z m-337
-164 c0 -5 -4 -10 -10 -10 -5 0 -10 5 -10 10 0 6 5 10 10 10 6 0 10 -4 10 -10z
m997 -1582 c-3 -8 -6 -5 -6 6 -1 11 2 17 5 13 3 -3 4 -12 1 -19z m-205 -80
c-9 -9 -15 -9 -24 0 -9 9 -7 12 12 12 19 0 21 -3 12 -12z"/>
<path d="M1475 4410 c-27 -21 -51 -44 -53 -50 -2 -5 -14 -10 -26 -10 -45 0
-71 -90 -45 -157 15 -40 -6 -101 -39 -110 -20 -5 -23 -10 -18 -35 4 -22 0 -35
-19 -54 -13 -13 -29 -24 -35 -24 -5 0 -10 -18 -10 -40 0 -38 -1 -40 -25 -34
-42 10 -55 -10 -55 -86 l0 -68 -44 -26 c-37 -21 -44 -31 -50 -66 -3 -22 -13
-43 -21 -46 -8 -3 -17 -13 -20 -22 -3 -10 -28 -33 -55 -52 -66 -46 -68 -77 -8
-144 22 -26 52 -52 65 -57 31 -12 29 -24 -7 -39 -27 -11 -30 -16 -25 -44 8
-38 -9 -86 -30 -86 -11 0 -15 11 -15 46 0 25 -5 65 -11 90 -10 37 -15 45 -33
42 -19 -3 -21 -10 -24 -93 -1 -49 -7 -100 -14 -113 l-12 -22 -27 26 -27 25
-19 -33 c-11 -18 -26 -55 -32 -82 -18 -75 -38 -106 -66 -106 -25 0 -33 -18
-15 -36 6 -6 6 -22 0 -44 -6 -19 -10 -51 -10 -71 0 -27 -6 -39 -23 -48 -21
-11 -30 -9 -73 19 -47 30 -49 30 -52 10 -2 -12 4 -43 14 -69 l17 -48 -26 -35
c-22 -28 -27 -46 -27 -90 0 -42 -6 -62 -25 -88 -14 -19 -25 -44 -25 -57 0 -31
-30 -30 -60 2 -31 33 -46 31 -58 -7 -23 -75 -24 -106 -2 -128 30 -30 25 -45
-20 -60 -46 -15 -54 -44 -20 -73 25 -21 25 -41 0 -83 -17 -27 -19 -36 -9 -52
7 -11 9 -33 5 -55 -6 -34 -8 -35 -38 -26 -39 11 -46 5 -69 -63 -24 -66 -24
-116 -1 -148 10 -16 19 -51 22 -94 3 -47 10 -71 20 -76 8 -5 55 -13 104 -19
100 -13 111 -9 146 59 10 19 27 44 39 54 12 11 21 25 21 32 0 18 -40 44 -68
44 -18 0 -23 4 -18 16 3 9 6 21 6 28 0 7 11 18 25 24 22 10 25 9 25 -8 0 -24
1 -25 42 -1 18 10 50 22 71 25 42 8 42 10 22 86 -22 82 -20 185 5 226 14 22
19 41 14 58 -9 35 -17 33 -48 -15 -31 -46 -44 -45 -27 2 6 18 11 42 11 54 0
13 9 33 19 46 l20 24 45 -44 c31 -30 46 -54 48 -75 4 -43 32 -46 47 -5 6 18
18 41 27 50 15 17 15 39 -2 82 -4 10 13 29 50 57 33 25 56 50 56 61 0 27 15
24 28 -6 6 -14 20 -25 30 -25 10 0 28 -13 40 -30 26 -35 42 -39 42 -10 0 32
44 70 80 70 17 0 39 5 49 11 13 9 26 9 50 1 31 -11 107 -6 256 19 33 5 98 9
145 9 222 -4 261 -2 285 14 30 20 49 20 65 1 16 -19 51 -19 113 0 55 16 77 10
140 -39 32 -25 37 -35 37 -70 0 -23 7 -52 16 -64 8 -12 41 -102 73 -200 69
-210 89 -262 141 -363 22 -42 49 -102 60 -133 18 -46 26 -56 45 -56 26 0 46
-21 27 -28 -20 -6 -13 -46 13 -75 14 -15 30 -27 36 -27 29 0 109 34 114 49 3
9 30 29 60 44 44 22 55 32 55 51 0 14 -4 28 -10 31 -5 3 -10 30 -10 58 -1 64
-31 212 -52 252 -9 17 -21 49 -27 71 -8 32 -17 43 -36 48 -14 4 -35 22 -48 41
-18 29 -27 34 -46 30 l-23 -6 22 37 23 36 -21 67 c-12 37 -22 75 -22 84 0 9
-4 17 -10 17 -5 0 -10 7 -10 17 0 9 -12 31 -26 50 -22 29 -25 44 -26 116 -1
45 2 92 6 105 11 34 -17 28 -51 -11 l-30 -34 -31 35 c-18 18 -29 38 -26 43 3
6 26 20 51 32 50 24 56 37 25 52 -12 5 -22 21 -24 35 -2 18 -14 30 -40 42 -37
18 -42 25 -53 90 -3 22 -14 42 -25 48 -11 6 -28 29 -38 53 -10 23 -26 48 -35
56 -23 19 -21 52 3 58 31 8 24 24 -30 78 -47 47 -50 52 -50 102 0 33 -7 64
-19 85 -10 18 -22 54 -25 80 -4 25 -13 52 -21 58 -7 6 -16 37 -20 68 -8 81
-24 139 -53 197 -14 28 -35 75 -48 105 -16 40 -29 56 -45 60 -34 8 -49 45 -49
123 0 56 5 77 26 113 16 26 36 47 50 50 38 10 10 34 -40 34 -34 0 -44 5 -60
28 -24 37 -247 127 -288 117 -21 -5 -33 -1 -52 19 -15 14 -26 32 -26 41 0 22
-9 18 -65 -25z m166 -721 c22 -41 49 -107 49 -117 0 -47 173 -447 211 -488 10
-11 19 -27 19 -35 0 -8 9 -25 20 -39 11 -14 20 -29 20 -33 0 -5 18 -29 40 -54
49 -56 80 -119 80 -162 l0 -33 -57 8 c-32 4 -67 7 -78 6 -11 0 -70 -4 -131 -8
-86 -5 -122 -3 -160 8 -28 9 -95 16 -159 18 -131 2 -150 9 -140 53 13 63 11
91 -7 95 -10 2 -19 -5 -23 -17 -14 -46 -25 -16 -25 69 0 78 3 92 22 109 30 28
38 18 38 -45 0 -41 4 -54 15 -54 8 0 15 6 15 13 0 6 18 38 40 71 22 32 40 66
40 75 0 10 6 26 14 36 12 17 12 22 0 39 -8 11 -14 35 -14 54 0 29 -5 35 -44
51 -50 22 -70 61 -31 61 14 0 25 -7 28 -20 6 -22 43 -28 50 -7 3 9 13 8 41 -5
20 -10 46 -18 57 -18 21 0 21 0 -1 36 -26 41 -21 52 15 36 45 -21 48 -17 41
66 -10 122 -13 142 -26 158 -10 11 -10 23 -1 55 12 40 27 47 42 18z m-421
-179 c0 -5 -5 -10 -11 -10 -5 0 -7 5 -4 10 3 6 8 10 11 10 2 0 4 -4 4 -10z
m-45 -619 c-36 -114 -34 -111 -75 -111 -45 0 -60 16 -67 69 -5 38 -3 42 63
108 l69 68 14 -39 c12 -34 11 -45 -4 -95z m76 -102 c-9 -23 -10 -22 -10 11 -1
23 2 31 9 24 7 -7 7 -19 1 -35z m344 -59 c3 -5 1 -10 -4 -10 -6 0 -11 5 -11
10 0 6 2 10 4 10 3 0 8 -4 11 -10z m525 -60 c0 -5 -4 -10 -10 -10 -5 0 -10 5
-10 10 0 6 5 10 10 10 6 0 10 -4 10 -10z m-1550 -30 c0 -5 -4 -10 -10 -10 -5
0 -10 5 -10 10 0 6 5 10 10 10 6 0 10 -4 10 -10z m107 -332 c-3 -8 -6 -5 -6 6
-1 11 2 17 5 13 3 -3 4 -12 1 -19z m-307 -628 c0 -10 -7 -20 -15 -24 -12 -4
-15 3 -15 31 0 30 2 34 15 23 8 -7 15 -20 15 -30z"/>
<path d="M760 2071 c-88 -27 -114 -56 -106 -116 6 -36 11 -45 27 -45 23 0 23
3 4 39 -13 26 -13 30 3 44 9 8 37 21 62 27 45 12 60 24 60 48 0 13 -12 14 -50
3z"/>
</g>
</svg>
